# xmcd
#
# Track frame offsets:
#	150
#	18440
#	39078
#	55771
#	70569
#	87100
#	102528
#	123796
#	143114
#	158292
#	174430
#	188465
#	203426
#	221931
#
# Disc length: 3174 seconds
#
# Revision: 0
# Processed by: cddbd v1.4b42PL1 Copyright (c) Steve Scherf et al.
# Submitted via: EasyCDDAExtractor 4.5.0.2
#
DISCID=a70c640e
DTITLE=Sandy and Junior - As Quato Estações
DYEAR=1900
DGENRE=Other
TTITLE0=Imortal
TTITLE1=A Arte Do Coração
TTITLE2=Aprender A Amar
TTITLE3=Bye, Bye
TTITLE4=Eu Quero Mais
TTITLE5=Olha O Que O Amor Me Faz
TTITLE6=Sua Estrela Sou Eu
TTITLE7=Príncipe Dos Mares
TTITLE8=Vamo Pulá!
TTITLE9=Baby, Eu Já Sabia
TTITLE10=Outdoor
TTITLE11=Eu Posso Quase Tudo
TTITLE12=As Quatro Estações
TTITLE13=Malia
EXTD=ID3G:  12
EXTT0=
EXTT1=
EXTT2=
EXTT3=
EXTT4=
EXTT5=
EXTT6=
EXTT7=
EXTT8=
EXTT9=
EXTT10=
EXTT11=
EXTT12=
EXTT13=
PLAYORDER=
